<svg class="ldi-4vy8ht" width="209px"  height="209px"  xmlns="http://www.w3.org/2000/svg" xmlns:xlink="http://www.w3.org/1999/xlink" viewBox="0 0 100 100" preserveAspectRatio="xMidYMid" style="background: none;"><!--?xml version="1.0" encoding="utf-8"?--><!--Generator: Adobe Illustrator 21.0.0, SVG Export Plug-In . SVG Version: 6.00 Build 0)--><svg version="1.1" id="Layer_1" xmlns="http://www.w3.org/2000/svg" xmlns:xlink="http://www.w3.org/1999/xlink" x="0px" y="0px" viewBox="0 0 100 100" style="transform-origin: 50px 50px 0px;" xml:space="preserve"><g style="transform-origin: 50px 50px 0px;"><g style="transform-origin: 50px 50px 0px; transform: scale(0.6);"><g class="ld ld-breath" style="transform-origin: 50px 50px 0px; animation-duration: 5.9s; animation-delay: -5.9s; animation-direction: normal;"><g><style type="text/css" style="transform-origin: 50px 50px 0px;">.st0{fill:#333}.st1,.st2{stroke-width:3.5;stroke-miterlimit:10}.st1{fill:url(#SVGID_1_);stroke:#333}.st2{opacity:.5;stroke:#000}.st3{fill:#666766;stroke:#333}.st3,.st4,.st5{stroke-width:3.5;stroke-miterlimit:10}.st4{opacity:.5;stroke-linejoin:round;stroke:#000}.st5{fill:none;stroke:#333;stroke-linecap:round}.st6{opacity:.5}.st7,.st8{stroke:#333;stroke-width:3.5}.st7{stroke-miterlimit:10;fill:none}.st8{fill:#849b87}.st10,.st11,.st8,.st9{stroke-miterlimit:10}.st9{opacity:.2;stroke-width:3.5;stroke-linejoin:round;stroke:#000}.st10,.st11{stroke:#333}.st10{stroke-width:3.5;fill:#e15c64}.st11{fill:#fff}.st11,.st12,.st13{stroke-width:3.5}.st12{opacity:.2;stroke-linecap:round;stroke-linejoin:round;stroke-miterlimit:10;stroke:#000}.st13{fill:#acbd81;stroke:#333}.st13,.st14,.st15,.st16{stroke-miterlimit:10}.st14{fill:#e0e0e0;stroke:#333;stroke-width:5.6375}.st15,.st16{stroke-width:5.638;stroke-linejoin:round}.st15{fill:#f0d848;stroke:#333}.st16{opacity:.2;stroke:#000;stroke-linecap:round}.st17,.st18,.st19{fill:#f4e6c8;stroke:#333;stroke-width:3.5;stroke-miterlimit:10}.st18,.st19{stroke:#fff;stroke-linecap:round}.st19{stroke:#f47e5f}.st20{fill:#acbd81}.st21{fill:#e0e0e0;stroke:#333;stroke-width:3.5;stroke-miterlimit:10}.st22{fill:#b92025}.st23,.st24{fill:none;stroke:#333;stroke-width:9;stroke-linecap:round;stroke-miterlimit:10}.st24{stroke-width:6}.st25{fill:#a0c8d7}.st26{opacity:.2}.st27,.st28{stroke-width:3.5}.st27{opacity:.2;stroke:#000;stroke-miterlimit:10}.st28{fill-rule:evenodd;clip-rule:evenodd;fill:#ffdc6e}.st28,.st29,.st30{stroke:#333;stroke-miterlimit:10}.st29{stroke-linecap:round;fill:none;stroke-width:2.8104}.st30{fill:#fff;stroke-width:3.7002}.st31,.st32{fill-rule:evenodd;clip-rule:evenodd;stroke-width:3.5}.st31{fill:none;stroke-linecap:round;stroke-miterlimit:10;stroke:#fff}.st32{opacity:.2;stroke:#000;stroke-linejoin:round}.st32,.st33,.st34,.st35{stroke-miterlimit:10}.st33{fill:#849b87;stroke:#333;stroke-width:3.7002}.st34,.st35{stroke-width:3.7}.st34{fill:#849b87;stroke-linecap:round;stroke:#fff}.st35{opacity:.2;stroke:#000}.st36{fill:#e0e0e0}.st37{fill:#fff}.st38,.st39{fill:#acbd81;stroke:#333;stroke-width:3.5;stroke-linecap:round;stroke-linejoin:round;stroke-miterlimit:10}.st39{fill:none}.st40{fill:#f4e6c8}.st41{fill:#acbd81;stroke:#fff;stroke-width:3.5;stroke-linecap:round;stroke-linejoin:round;stroke-miterlimit:10}.st42{fill:#67503b}.st43{fill:#a0c8d7;stroke:#333}.st43,.st44,.st45,.st46,.st47,.st48,.st49{stroke-width:3.5;stroke-miterlimit:10}.st44{stroke-linecap:round;fill:#a0c8d7;stroke:#fff}.st45,.st46,.st47,.st48,.st49{fill:#f47e5f;stroke:#333}.st46,.st47,.st48,.st49{fill:none;stroke:#fff;stroke-linecap:round}.st47,.st48,.st49{fill:#e0e0e0;stroke:#333}.st48,.st49{fill:#fff}.st49{fill:#e0e0e0;stroke:#fff}.st50{fill:#fcdc4f}.st51{fill:#407cae}.st52{fill:none}.st53{fill:#fefefe}.st54{fill:none;stroke:#a0c8d7;stroke-width:3.5;stroke-miterlimit:10}.st55,.st56{stroke-linecap:round}.st55{stroke:#fff;stroke-width:2.5;stroke-miterlimit:10;fill:none}.st56{fill:#f4e6c8}.st56,.st57,.st58{stroke:#333;stroke-width:3.5;stroke-miterlimit:10}.st57{stroke-linecap:round;fill:#f47e5f}.st58{fill:#f7b26a}.st59{fill:#849b87}.st60{fill:#e15c64}.st61,.st62,.st63,.st64{fill:none;stroke:#fff;stroke-width:2.1185;stroke-miterlimit:10}.st62,.st63,.st64{stroke-width:2.3545}.st63,.st64{fill:#fff}.st64{fill:#f4e6c8;stroke:#333;stroke-width:5.6375}.st65{fill:#c33837;stroke:#333;stroke-width:5.638;stroke-linecap:round;stroke-linejoin:round}.st65,.st66,.st67,.st68{stroke-miterlimit:10}.st66{opacity:.2;stroke:#000;stroke-linejoin:round;stroke-width:5.638}.st67,.st68{stroke-width:3.5}.st67{fill:#f47e5f;stroke-linecap:round;stroke:#fff}.st68{stroke:#333}.st69{fill:#070404}.st70{fill:#c42026}.st71{fill:#010101}.st72{opacity:.4}.st73{fill:#666766}.st74,.st75,.st76,.st77{fill:none;stroke-miterlimit:10}.st74{stroke:#fff;stroke-linecap:round;stroke-width:3}.st75,.st76,.st77{stroke-width:3.5}.st75{stroke-linejoin:round;stroke:#333}.st76,.st77{stroke:#e0e0e0}.st77{stroke:#e15c64}.st78{fill:none;stroke:#77a4bd}.st78,.st79,.st80{stroke-width:3.5;stroke-miterlimit:10}.st79{stroke-linejoin:round;fill:none;stroke:#f4e6c8}.st80{fill:#acbd81;stroke:#fff;stroke-linecap:round}.st81{stroke:#333434;stroke-linejoin:round}.st81,.st82,.st83{fill:#77a4bd;stroke-width:3.5;stroke-miterlimit:10}.st82{stroke-linejoin:round;stroke:#fff}.st83{stroke:#e0e0e0}.st83,.st84,.st85,.st86{stroke-linejoin:round}.st84{fill:none;stroke-width:3.5;stroke-linecap:round;stroke-miterlimit:10;stroke:#e0e0e0}.st85,.st86{stroke:#333}.st85{stroke-width:3.5;stroke-miterlimit:10;fill:#e0e0e0}.st86{fill:#e15c64}.st86,.st87,.st88,.st89,.st90,.st91{stroke-width:3.5;stroke-miterlimit:10}.st87{fill:#f7b26a;stroke-linecap:round;stroke:#fff}.st88,.st89,.st90,.st91{stroke:#000}.st89,.st90,.st91{fill-rule:evenodd;clip-rule:evenodd;fill:#fff;stroke:#333}.st90,.st91{fill:#e0e0e0}.st91{fill:none;stroke:#fff;stroke-linejoin:round}.st91,.st92,.st93{stroke-linecap:round}.st92{stroke-width:3.5;stroke-linejoin:round;stroke-miterlimit:10;fill:none;stroke:#fff}.st93{fill:#67503b;stroke:#333}.st93,.st94,.st95,.st96{stroke-width:3.5;stroke-miterlimit:10}.st94{stroke-linecap:round;fill:#67503b;stroke:#fff}.st95,.st96{fill:#333;stroke:#333}.st96{fill:url(#SVGID_2_)}.st97{fill:#f47e5f}.st98,.st99{stroke-miterlimit:10}.st98{opacity:.2;stroke-width:3.5;stroke-linecap:round;stroke:#000}.st99{fill:#fff;stroke:#333}.st100{opacity:.3}.st101{stroke:#333;stroke-miterlimit:10}.st102{fill:#e6e6e6}</style><g style="transform-origin: 50px 50px 0px;"><g><g style="transform-origin: 50px 50px 0px;"><path class="st0" d="M89.033,36.976c0.175,4.737-0.793,9.48-2.637,13.837c-0.934,2.205-2.066,4.689-3.616,6.538 c-1.44,1.717-3.802,2.346-5.887,3.146c-9.637,3.698-19.978,5.518-30.295,5.436c-5.987-0.048-11.971-0.736-17.808-2.073 c-2.91-0.666-5.817-1.464-8.623-2.49c-2.693-0.984-4.249-3.376-5.567-5.851c-3.607-6.77-4.568-14.883-2.772-22.341 s6.308-14.208,12.433-18.827c1.853-1.397,3.865-2.615,6.062-3.361c2.139-0.727,4.414-0.993,6.672-0.99 c5.064,0.008,10.221,1.432,14.187,4.58c0.557-0.769,1.406-1.269,2.256-1.692c7.618-3.789,17.265-2.69,24.198,2.241 C84.568,20.06,88.718,28.473,89.033,36.976z" fill="rgb(51, 51, 51)" style="fill: rgb(51, 51, 51);"></path></g></g></g><g style="transform-origin: 50px 50px 0px;"><g class="st100"><g style="transform-origin: 50px 50px 0px;"><path d="M89.033,36.976c-0.315-8.502-4.465-16.915-11.398-21.847c-2.053-1.46-4.347-2.575-6.753-3.336 c2.335,5.915,3.243,12.802,2.577,19.538c-0.58,5.858-2.294,11.576-4.817,16.707c-1.277,2.597-2.795,5.512-4.626,7.591 c-1.701,1.931-4.144,2.402-6.339,3.121c-10.146,3.321-20.691,4.238-30.91,2.815c-3.157-0.44-6.282-1.11-9.358-1.995 c0.776,0.769,1.671,1.403,2.758,1.8c2.806,1.025,5.713,1.823,8.623,2.49c5.837,1.336,11.82,2.025,17.808,2.073 c10.317,0.082,20.659-1.738,30.295-5.436c2.085-0.8,4.447-1.428,5.887-3.146c1.55-1.849,2.682-4.333,3.616-6.538 C88.241,46.456,89.209,41.713,89.033,36.976z" fill="rgb(0, 0, 0)" style="fill: rgb(0, 0, 0);"></path></g></g></g><g style="transform-origin: 50px 50px 0px;"><g><g style="transform-origin: 50px 50px 0px;"><path class="st40" d="M26.827,34.424c1.484,2.611,1.273,5.889,0.333,8.741c-0.94,2.853-2.536,5.437-3.783,8.169 c-1.825,4.002-2.898,8.345-3.148,12.736c-0.252,4.425,0.371,9.008,2.562,12.861c2.076,3.651,5.455,6.444,9.201,8.345 c3.746,1.901,7.86,2.965,11.99,3.732c5.615,1.043,11.475,1.551,16.988,0.059c3.432-0.929,6.63-2.612,9.531-4.667 c5.157-3.653,9.632-8.931,10.355-15.21c0.432-3.752-0.506-7.521-1.614-11.132c-1.116-3.64-2.432-7.262-4.505-10.455 c-2.074-3.193-4.975-5.956-8.541-7.291" fill="rgb(244, 230, 200)" style="fill: rgb(244, 230, 200);"></path></g><g style="transform-origin: 50px 50px 0px;"><g><g style="transform-origin: 50px 50px 0px;"><path class="st0" d="M25.532,35.181c2.479,5.552-1.25,10.536-3.45,15.396c-1.418,3.132-2.429,6.413-2.959,9.814 c-0.899,5.775-0.587,12.114,2.373,17.296c6.408,11.22,23.368,14.843,35.282,13.634c10.694-1.085,22.973-9.221,25.293-20.302 c1.354-6.469-1.053-13.611-3.595-19.506c-2.351-5.453-5.978-10.095-11.522-12.497c-1.753-0.76-3.283,1.824-1.514,2.59 c10.766,4.663,17.697,23.302,11.798,33.591c-6.527,11.384-19.933,14.579-32.01,12.511c-6.111-1.047-12.676-2.76-17.4-7.01 c-5.251-4.724-6.685-11.462-5.965-18.273c0.675-6.383,3.784-11.375,6.11-17.18c1.583-3.949,1.896-7.67,0.15-11.58 C27.337,31.907,24.751,33.431,25.532,35.181L25.532,35.181z" fill="rgb(51, 51, 51)" style="fill: rgb(51, 51, 51);"></path></g></g></g></g></g><g style="transform-origin: 50px 50px 0px;"><g class="st26"><g style="transform-origin: 50px 50px 0px;"><path d="M79.242,58.058c-1.116-3.64-2.432-7.262-4.505-10.455c-2.074-3.193-4.975-5.956-8.541-7.291l-4.437-0.664 c1.003,1.644,1.835,3.472,2.478,5.393c1.444,4.315,2.057,9.055,2.47,13.787c0.41,4.695,0.622,9.562-0.517,14.204 c-1.812,7.387-6.81,13.127-12.278,16.949c2.384-0.031,4.751-0.291,7.057-0.915c3.432-0.929,6.63-2.612,9.531-4.667 c5.157-3.653,9.632-8.931,10.355-15.21C81.288,65.438,80.35,61.67,79.242,58.058z" fill="rgb(0, 0, 0)" style="fill: rgb(0, 0, 0);"></path></g><g style="transform-origin: 50px 50px 0px;"><g><g style="transform-origin: 50px 50px 0px;"><path d="M80.689,57.66c-3.105-9.825-7.815-17.855-18.53-19.457c-1.242-0.186-2.395,0.971-1.694,2.203 c4.242,7.463,5.269,17.065,5.066,25.545c-0.227,9.521-4.745,17.174-12.374,22.736c-1.108,0.808-0.862,2.857,0.757,2.795 c8.678-0.333,16.72-3.928,22.624-10.379C82.9,74.152,83.256,66.398,80.689,57.66c-0.543-1.848-3.439-1.062-2.893,0.798 c2.443,8.316,1.956,15.327-4.404,21.584c-5.322,5.237-12.026,8.155-19.478,8.441c0.252,0.932,0.505,1.863,0.757,2.795 c7.293-5.317,12.643-12.594,13.64-21.762c1.069-9.836-0.31-21.924-5.255-30.624c-0.565,0.735-1.129,1.469-1.694,2.203 c3.376,0.505,5.871,0.857,8.605,3.227c4.196,3.638,6.202,8.983,7.83,14.136C78.376,60.292,81.273,59.508,80.689,57.66z" fill="rgb(0, 0, 0)" style="fill: rgb(0, 0, 0);"></path></g></g></g></g></g><g style="transform-origin: 50px 50px 0px;"><g><g style="transform-origin: 50px 50px 0px;"><g><g style="transform-origin: 50px 50px 0px;"><path class="st0" d="M27.887,41.519c4.456-0.324,8.898,0.244,11.857,3.936c1.207,1.506,3.318-0.628,2.121-2.121 c-3.409-4.253-8.806-5.19-13.978-4.814C25.973,38.658,25.958,41.66,27.887,41.519L27.887,41.519z" fill="rgb(51, 51, 51)" style="fill: rgb(51, 51, 51);"></path></g></g></g></g></g><g style="transform-origin: 50px 50px 0px;"><g><g style="transform-origin: 50px 50px 0px;"><path class="st0" d="M28.703,48.778c1.721-0.842,3.551-1.544,5.464-1.659c1.913-0.115,3.93,0.42,5.293,1.767 c0.765,0.756,1.289,1.727,1.66,2.736c0.847,2.303,1.093,7.034-0.271,9.294c-1.445,2.394-5.777,2.477-7.016-0.143 c-1.219-2.576-1.418-6.297-0.544-8.991c0.605-1.865,2.136-3.776,4.087-3.579" fill="rgb(51, 51, 51)" style="fill: rgb(51, 51, 51);"></path></g><g style="transform-origin: 50px 50px 0px;"><g><g style="transform-origin: 50px 50px 0px;"><path class="st0" d="M29.46,50.073c3.309-1.55,7.961-2.645,9.947,1.395c1.031,2.097,1.226,5.046,0.659,7.303 c-0.804,3.2-4.369,3.122-5.352,0.097c-0.767-2.361-1.085-9.056,2.66-9.165c1.926-0.056,1.934-3.057,0-3 c-5.705,0.167-6.651,7.361-5.835,11.729c0.423,2.267,1.305,4.472,3.574,5.38c1.843,0.737,4.116,0.469,5.713-0.718 c3.472-2.579,2.957-9.115,1.431-12.618c-2.638-6.057-9.277-5.352-14.311-2.994C26.199,48.301,27.72,50.888,29.46,50.073 L29.46,50.073z" fill="rgb(51, 51, 51)" style="fill: rgb(51, 51, 51);"></path></g></g></g></g></g><g style="transform-origin: 50px 50px 0px;"><g><g style="transform-origin: 50px 50px 0px;"><g><g style="transform-origin: 50px 50px 0px;"><path class="st0" d="M51.289,45.412c5.33-3.104,11.047-4.779,17.209-5.013c1.924-0.073,1.934-3.073,0-3 c-6.668,0.253-12.958,2.065-18.723,5.423C48.107,43.793,49.616,46.387,51.289,45.412L51.289,45.412z" fill="rgb(51, 51, 51)" style="fill: rgb(51, 51, 51);"></path></g></g></g></g></g><g style="transform-origin: 50px 50px 0px;"><g><g style="transform-origin: 50px 50px 0px;"><path class="st0" d="M51.897,48.057c2.483-1.813,6.261-1.807,9.196-1.453c1.78,0.215,3.456,1.185,4.529,2.621 c2.616,3.502,0.265,14.529-5.484,13.636c-2.962-0.46-3.308-4.245-3.293-6.701c0.017-2.882,1.088-5.791,3.142-7.845" fill="rgb(51, 51, 51)" style="fill: rgb(51, 51, 51);"></path></g><g style="transform-origin: 50px 50px 0px;"><g><g style="transform-origin: 50px 50px 0px;"><path class="st0" d="M52.654,49.352c2.997-1.882,9.796-2.604,11.926,1.018c1.135,1.93,0.639,4.926-0.013,6.92 c-0.732,2.24-3.825,6.46-5.745,2.57c-1.607-3.256,0.01-8.04,2.226-10.485c1.294-1.428-0.821-3.556-2.121-2.121 c-3.298,3.64-5.252,10.496-2.257,14.968c2.632,3.929,7.584,1.946,9.594-1.404c1.979-3.298,2.932-8.718,0.78-12.157 c-3.097-4.949-11.504-4.662-15.904-1.9C49.509,47.786,51.013,50.383,52.654,49.352L52.654,49.352z" fill="rgb(51, 51, 51)" style="fill: rgb(51, 51, 51);"></path></g></g></g></g></g><g style="transform-origin: 50px 50px 0px;"><g><g style="transform-origin: 50px 50px 0px;"><g><g style="transform-origin: 50px 50px 0px;"><path class="st0" d="M41.068,77.729c2.313-1.726,6.616-5.775,9.455-4.424c3.132,1.49,5.565,3.964,8.912,5.222 c1.809,0.68,2.591-2.219,0.798-2.893c-2.415-0.907-4.478-2.267-6.567-3.747c-1.356-0.961-2.792-2.389-4.548-2.288 c-3.252,0.186-7.063,3.674-9.564,5.54C38.025,76.281,39.519,78.886,41.068,77.729L41.068,77.729z" fill="rgb(51, 51, 51)" style="fill: rgb(51, 51, 51);"></path></g></g></g></g></g><g style="transform-origin: 50px 50px 0px;"><g><g style="transform-origin: 50px 50px 0px;"><path class="st40" d="M26.72,35.611c5.345-0.523,10.78-0.104,15.982,1.231c1.236-2.356,3.563-6.986,4.798-9.342 c0.215,2.698,2.285,7.669,2.5,10.366c7.09-0.26,11.267,0.46,18.161,2.134" fill="rgb(244, 230, 200)" style="fill: rgb(244, 230, 200);"></path></g><g style="transform-origin: 50px 50px 0px;"><g><g style="transform-origin: 50px 50px 0px;"><path class="st0" d="M26.72,37.111c5.3-0.414,10.398-0.046,15.583,1.177c0.622,0.147,1.382-0.09,1.694-0.689 c1.615-3.106,3.183-6.236,4.798-9.342c-0.914-0.119-1.828-0.239-2.742-0.358c0.489,3.537,2.011,6.83,2.5,10.366 c0.087,0.628,0.853,1.116,1.446,1.101c6.102-0.153,11.834,0.668,17.763,2.08c1.877,0.447,2.678-2.445,0.798-2.893 c-6.204-1.477-12.167-2.347-18.56-2.187c0.482,0.367,0.964,0.734,1.446,1.101c-0.489-3.537-2.011-6.83-2.5-10.366 c-0.179-1.292-2.186-1.427-2.742-0.358c-1.615,3.106-3.183,6.236-4.798,9.342c0.565-0.23,1.129-0.46,1.694-0.689 c-5.432-1.282-10.809-1.72-16.38-1.285C24.808,34.26,24.792,37.262,26.72,37.111L26.72,37.111z" fill="rgb(51, 51, 51)" style="fill: rgb(51, 51, 51);"></path></g></g></g></g></g><g style="transform-origin: 50px 50px 0px;"><ellipse class="st60" cx="31.583" cy="65.689" rx="5.917" ry="3.477" fill="rgb(225, 92, 100)" style="fill: rgb(225, 92, 100);"></ellipse></g><g style="transform-origin: 50px 50px 0px;"><ellipse class="st60" cx="65.806" cy="65.935" rx="5.917" ry="3.477" fill="rgb(225, 92, 100)" style="fill: rgb(225, 92, 100);"></ellipse></g><g style="transform-origin: 50px 50px 0px;"><path class="st92" d="M23.09,21.033c-0.278,0.417-0.542,0.842-0.793,1.275" stroke="rgb(255, 255, 255)" style="stroke: rgb(255, 255, 255);"></path></g><g style="transform-origin: 50px 50px 0px;"><path class="st92" d="M34.311,14.261c-2.531-0.077-5.033,0.854-7.081,2.344" stroke="rgb(255, 255, 255)" style="stroke: rgb(255, 255, 255);"></path></g><g style="transform-origin: 50px 50px 0px;"><circle class="st101" cx="37.102" cy="56.124" r="3.791" stroke="rgb(51, 51, 51)" fill="rgb(0, 0, 0)" style="stroke: rgb(51, 51, 51); fill: rgb(0, 0, 0);"></circle></g><g style="transform-origin: 50px 50px 0px;"><circle class="st37" cx="38.5" cy="52.5" r="2.5" fill="rgb(255, 255, 255)" style="fill: rgb(255, 255, 255);"></circle></g><g style="transform-origin: 50px 50px 0px;"><circle class="st101" cx="62.015" cy="55.405" r="3.791" stroke="rgb(51, 51, 51)" fill="rgb(0, 0, 0)" style="stroke: rgb(51, 51, 51); fill: rgb(0, 0, 0);"></circle></g><g style="transform-origin: 50px 50px 0px;"><circle class="st37" cx="63.306" cy="52.614" r="2.5" fill="rgb(255, 255, 255)" style="fill: rgb(255, 255, 255);"></circle></g><metadata xmlns:d="https://loading.io/stock/" style="transform-origin: 50px 50px 0px;">
<d:name style="transform-origin: 50px 50px 0px;">cartoonist</d:name>
<d:tags style="transform-origin: 50px 50px 0px;">cartoonist,animator,comic,manga,animation,cartoon,anime,caricaturist,sensei,acg</d:tags>
<d:license style="transform-origin: 50px 50px 0px;">cc-by</d:license>
<d:slug style="transform-origin: 50px 50px 0px;">4vy8ht</d:slug>
</metadata></g></g></g></g><style type="text/css" style="transform-origin: 50px 50px 0px;">@keyframes ld-breath {
  0% {
    -webkit-transform: scale(0.86);
    transform: scale(0.86);
  }
  50% {
    -webkit-transform: scale(1.06);
    transform: scale(1.06);
  }
  100% {
    -webkit-transform: scale(0.86);
    transform: scale(0.86);
  }
}
@-webkit-keyframes ld-breath {
  0% {
    -webkit-transform: scale(0.86);
    transform: scale(0.86);
  }
  50% {
    -webkit-transform: scale(1.06);
    transform: scale(1.06);
  }
  100% {
    -webkit-transform: scale(0.86);
    transform: scale(0.86);
  }
}
.ld.ld-breath {
  -webkit-animation: ld-breath 1s infinite;
  animation: ld-breath 1s infinite;
}
</style></svg></svg>